<?xml version="1.0" encoding="utf-8"?>
<!-- Generator: Adobe Illustrator 18.1.1, SVG Export Plug-In . SVG Version: 6.00 Build 0)  -->
<svg version="1.1" baseProfile="basic" id="Layer_1"
	 xmlns="http://www.w3.org/2000/svg" xmlns:xlink="http://www.w3.org/1999/xlink" x="0px" y="0px" viewBox="0 0 258 235.3"
	 xml:space="preserve">
<g>
	<path fill="#00438e" d="M128.9,0L33.5,163.9h190.9L128.9,0z M160.2,58.3l28,48l-41.9-23.8L160.2,58.3z M135.3,76.2L105,58.7
		l-3.2-1.6h55.9L135.3,76.2z M156.5,60.7l-12,20.6l-7.2-4L156.5,60.7z M111.8,65.1l22,12.7l0,0L119,90.5l-18.4-31.3L111.8,65.1z
		 M118.6,93.2L118.6,93.2l8.8,15.5H101l14-12.3L118.6,93.2z M120.2,92L120.2,92l11.2-9.9l4-3.6l4.8,2.8l3.2,2l-14,24.2L120.2,92z
		 M145.3,84.1L145.3,84.1l42.7,24.6h-56.7L145.3,84.1z M188.1,110.7l-42.7,24.6l-14-24.6L188.1,110.7L188.1,110.7z M128.9,4.8
		l29.1,50H99.7L128.9,4.8z M97,59.5V98v10.3H68.6L97,59.5z M95.4,110.7l-17.6,15.5L69,110.7H95.4z M67,111.5L67,111.5l9.2,15.9l0,0
		l-16,13.9l-20.4,17.5L67,111.5z M96.2,162.3H38.3l37.5-32.5L77,129l0,0L96.2,162.3z M78.6,127.7L78.6,127.7L97,111.8v17.5v29.8
		L78.6,127.7z M99,59.5L99,59.5l18.4,31.7L99,107.1V89.2V59.5z M99,120.6v-10.3h28.3l-28.4,48.8L99,120.6L99,120.6z M101,160.3
		l28.4-48.8l14,24.6L119,150L101,160.3L101,160.3z M101.8,162.3l42.7-24.2l14,24.2H101.8z M146.1,136.9l42.7-24.6l-24.2,41.6l-4,7.1
		L146.1,136.9z M180.5,130.5l10.8-18.6l14,24.2L163,160.3L180.5,130.5z M164.6,162.3l42.3-24.2l14,24.2H164.6z"/>
	<path fill="#00438e" d="M0,221.8c0.8,0,2.4,0,3.6,0c1.6,0,2.8,0,3.6,0.8c0.8,0.4,1.6,1.2,1.6,2.4c0,1.2-0.8,2.4-2,2.8l0,0
		c1.6,0.4,2.8,1.6,2.8,3.2c0,1.2-0.4,2-1.2,2.8C7.6,234.6,6,235,3.2,235c-1.6,0-2.4,0-3.2,0C0,234.5,0,221.8,0,221.8z M2.8,226.9
		h0.8c1.6,0,2.4-0.4,2.4-1.6s-0.8-1.6-2-1.6c-0.4,0-0.8,0-1.2,0V226.9L2.8,226.9z M2.8,232.5c0.4,0,0.4,0,1.2,0c1.2,0,2.4-0.4,2.4-2
		s-1.2-2-2.8-2H2.8V232.5L2.8,232.5z"/>
	<path fill="#00438e" d="M14.3,221.8v7.1c0,2.4,0.8,3.2,2.4,3.2s2.4-1.2,2.4-3.2v-7.1h2.8v7.1c0,4-2,6-5.2,6s-5.2-2-5.2-6v-7.1H14.3
		z"/>
	<path fill="#00438e" d="M24.7,231.7c0.8,0.4,2,0.8,3.2,0.8c1.2,0,2-0.4,2-1.2c0-0.8-0.4-1.2-2-2c-2-0.8-3.6-2-3.6-3.6
		c0-2.4,2-3.6,4.8-3.6c1.6,0,2.4,0.4,3.2,0.4l-0.4,2.4c-0.4,0-1.6-0.4-2.8-0.4s-2,0.4-2,1.2c0,0.8,0.8,1.2,2.4,2
		c2.4,0.8,3.2,2,3.2,3.6c0,2-1.6,4-5.2,4c-1.6,0-3.2-0.4-3.6-0.8L24.7,231.7z"/>
	<rect x="34.7" y="221.8" fill="#00438e" width="2.8" height="12.7"/>
	<path fill="#00438e" d="M40.3,234.5v-12.7h3.2l2.8,4.8c0.8,1.2,1.6,3.2,2,4.4l0,0c0-1.6,0-3.2,0-5.6v-3.6h2.8v12.7h-3.2l-2.8-4.8
		c-0.8-1.2-1.6-3.2-2.4-4.4l0,0c0,1.6,0,3.6,0,5.6v4h-2.4C40.3,234.9,40.3,234.5,40.3,234.5z"/>
	<polygon fill="#00438e" points="61.1,229.3 56.3,229.3 56.3,232.1 61.5,232.1 61.5,234.5 53.5,234.5 53.5,221.8 61.5,221.8
		61.5,224.2 56.3,224.2 56.3,226.9 61.1,226.9 	"/>
	<path fill="#00438e" d="M63.9,231.7c0.8,0.4,2,0.8,3.2,0.8s2-0.4,2-1.2c0-0.8-0.4-1.2-2-2c-2-0.8-3.6-2-3.6-3.6
		c0-2.4,2-3.6,4.8-3.6c1.6,0,2.4,0.4,3.2,0.4l-0.4,2.4c-0.4,0-1.6-0.4-2.8-0.4c-1.2,0-2,0.4-2,1.2c0,0.8,0.8,1.2,2.4,2
		c2.4,0.8,3.2,2,3.2,3.6c0,2-1.6,4-5.2,4c-1.6,0-3.2-0.4-3.6-0.8L63.9,231.7z"/>
	<path fill="#00438e" d="M73.8,231.7c0.8,0.4,2,0.8,3.2,0.8c1.2,0,2-0.4,2-1.2c0-0.8-0.4-1.2-2-2c-2-0.8-3.6-2-3.6-3.6
		c0-2.4,2-3.6,4.8-3.6c1.6,0,2.4,0.4,3.2,0.4l-0.4,2.4c-0.4,0-1.6-0.4-2.8-0.4c-1.2,0-2,0.4-2,1.2c0,0.8,0.8,1.2,2.4,2
		c2.4,0.8,3.2,2,3.2,3.6c0,2-1.6,4-5.2,4c-1.6,0-3.2-0.4-3.6-0.8L73.8,231.7z"/>
	<path fill="#00438e" d="M88.2,231.7c0.8,0.4,2,0.8,3.2,0.8s2-0.4,2-1.2c0-0.8-0.4-1.2-2-2c-2-0.8-3.6-2-3.6-3.6
		c0-2.4,2-3.6,4.8-3.6c1.6,0,2.4,0.4,3.2,0.4l-0.4,2.4c-0.4,0-1.6-0.4-2.8-0.4c-1.2,0-2,0.4-2,1.2c0,0.8,0.8,1.2,2.4,2
		c2.4,0.8,3.2,2,3.2,3.6c0,2-1.6,4-5.2,4c-1.6,0-3.2-0.4-3.6-0.8L88.2,231.7z"/>
	<path fill="#00438e" d="M107.8,234.5c-0.4,0-1.6,0.4-3.2,0.4c-4.4,0-6.8-2.8-6.8-6.3c0-4.4,3.2-6.7,6.8-6.7c1.6,0,2.8,0.4,3.2,0.4
		l-0.4,2.4c-0.4,0-1.2-0.4-2.4-0.4c-2.4,0-4,1.2-4,4.4c0,2.8,1.6,4,4,4c0.8,0,2,0,2.4-0.4L107.8,234.5z"/>
	<polygon fill="#00438e" points="112.6,221.8 112.6,226.5 117.4,226.5 117.4,221.8 120.2,221.8 120.2,234.5 117.4,234.5
		117.4,229.3 112.6,229.3 112.6,234.5 109.8,234.5 109.8,221.8 	"/>
	<path fill="#00438e" d="M134.5,228.1c0,4-2.4,6.7-6.4,6.7c-3.6,0-6-2.8-6-6.3c0-3.6,2.4-6.7,6.4-6.7S134.5,224.6,134.5,228.1
		 M125.3,228.1c0,2.4,1.2,4.4,3.2,4.4c2,0,3.2-2,3.2-4.4c0-2.4-1.2-4.4-3.2-4.4C126.5,223.7,125.3,225.7,125.3,228.1"/>
	<path fill="#00438e" d="M148.5,228.1c0,4-2.4,6.7-6.4,6.7c-3.6,0-6-2.8-6-6.3c0-3.6,2.4-6.7,6.4-6.7
		C146.1,221.8,148.5,224.6,148.5,228.1 M138.9,228.1c0,2.4,1.2,4.4,3.2,4.4s3.2-2,3.2-4.4c0-2.4-1.2-4.4-3.2-4.4
		C140.1,223.8,138.9,225.7,138.9,228.1"/>
	<polygon fill="#00438e" points="150.1,221.8 152.9,221.8 152.9,232.1 158.5,232.1 158.5,234.5 150.1,234.5 	"/>
	<path fill="#00438e" d="M164.2,231.7c0.8,0.4,2,0.8,3.2,0.8s2-0.4,2-1.2c0-0.8-0.4-1.2-2-2c-2-0.8-3.6-2-3.6-3.6
		c0-2.4,2-3.6,4.8-3.6c1.6,0,2.4,0.4,3.2,0.4l-0.4,2.4c-0.4,0-1.6-0.4-2.8-0.4c-1.2,0-2,0.4-2,1.2c0,0.8,0.8,1.2,2.4,2
		c2.4,0.8,3.2,2,3.2,3.6c0,2-1.6,4-5.2,4c-1.6,0-3.2-0.4-3.6-0.8L164.2,231.7z"/>
	<rect x="174.2" y="221.8" fill="#00438e" width="2.8" height="12.7"/>
	<path fill="#00438e" d="M179.7,234.5v-12.7h3.2l2.8,4.8c0.8,1.2,1.6,3.2,2,4.4l0,0c0-1.6,0-3.2,0-5.6v-3.6h2.8v12.7h-3.2l-2.8-4.8
		c-0.8-1.2-1.6-3.2-2.4-4.4l0,0c0,1.6,0,3.6,0,5.6v4h-2.4L179.7,234.5L179.7,234.5z"/>
	<path fill="#00438e" d="M202.1,234.5c-0.4,0-1.6,0.4-3.2,0.4c-4.4,0-6.8-2.8-6.8-6.3c0-4.4,3.2-6.7,6.8-6.7c1.6,0,2.8,0.4,3.2,0.4
		l-0.4,2.4c-0.4,0-1.2-0.4-2.4-0.4c-2.4,0-4,1.2-4,4.4c0,2.8,1.6,4,4,4c0.8,0,2,0,2.4-0.4L202.1,234.5z"/>
	<polygon fill="#00438e" points="211.7,229.3 206.9,229.3 206.9,232.1 212.1,232.1 212.1,234.5 204.1,234.5 204.1,221.8
		212.1,221.8 212.1,224.2 206.9,224.2 206.9,226.9 211.7,226.9 	"/>
	<polygon fill="#00438e" points="221.7,225 221.7,225 218.9,225.7 218.5,223.8 221.7,222.2 224.5,222.2 224.5,234.5 221.7,234.5
		"/>
	<path fill="#00438e" d="M229.3,232.5c0.4,0,0.8,0,1.2,0c0.8,0,2-0.4,2.4-0.8c0.8-0.4,1.2-1.2,1.6-2.4l0,0c-0.4,0.4-1.2,0.8-2.4,0.8
		c-2,0-3.6-1.6-3.6-4c0-2.4,2-4.4,4.8-4.4c3.2,0,4.8,2.4,4.8,5.2c0,2.8-0.8,4.4-2.4,5.6c-1.2,1.2-2.8,1.6-4.8,1.6
		c-0.4,0-0.8,0-1.2,0L229.3,232.5L229.3,232.5z M230.9,226.1c0,1.2,0.4,2,1.6,2c0.8,0,1.2-0.4,1.6-0.8c0,0,0-0.4,0-0.8
		c0-1.2-0.4-2.8-2-2.8C231.7,224.2,230.9,225,230.9,226.1"/>
	<path fill="#00438e" d="M239.6,232.5c0.4,0,0.8,0,1.2,0c0.8,0,2-0.4,2.4-0.8c0.8-0.4,1.2-1.2,1.6-2.4l0,0c-0.4,0.4-1.2,0.8-2.4,0.8
		c-2,0-3.6-1.6-3.6-4c0-2.4,2-4.4,4.8-4.4c3.2,0,4.8,2.4,4.8,5.2c0,2.8-0.8,4.4-2.4,5.6c-1.2,1.2-2.8,1.6-4.8,1.6
		c-0.4,0-0.8,0-1.2,0L239.6,232.5L239.6,232.5z M241.6,226.1c0,1.2,0.4,2,1.6,2c0.8,0,1.2-0.4,1.6-0.8c0,0,0-0.4,0-0.8
		c0-1.2-0.4-2.8-2-2.8C242,224.2,241.6,225,241.6,226.1"/>
	<path fill="#00438e" d="M250,231.7c0.4,0.4,1.6,0.8,2.8,0.8c1.6,0,2.4-0.8,2.4-1.6c0-1.2-1.2-2-2.4-2h-1.2v-2h1.2
		c0.8,0,2.4-0.4,2.4-1.6c0-0.8-0.4-1.2-2-1.2c-0.8,0-2,0.4-2.8,0.8l-0.4-2c0.8-0.4,2.4-0.8,3.6-0.8c2.8,0,4,1.2,4,3.2
		c0,1.2-0.8,2.4-2.4,2.8l0,0c1.6,0,2.8,1.2,2.8,3.2c0,2.4-2,3.6-5.2,3.6c-1.6,0-3.2-0.4-3.6-0.8L250,231.7z"/>
	<polygon fill="#00438e" points="35.5,170.6 38.7,184.9 39.1,184.9 42.3,170.6 47.5,170.6 47.5,188.5 44.3,188.5 44.3,173.4
		44.3,173.4 40.7,188.5 37.1,188.5 33.5,173.4 33.5,173.4 33.5,188.5 29.9,188.5 29.9,170.6 	"/>
	<rect x="52.3" y="170.6" fill="#00438e" width="3.6" height="17.9"/>
	<polygon fill="#00438e" points="63.5,170.6 69.4,178.1 69.4,170.6 72.6,170.6 72.6,178.1 78.2,170.6 83,170.6 76.6,178.1
		83.4,188.5 78.6,188.5 74.2,180.5 72.6,182.5 72.6,188.5 69.4,188.5 69.4,182.5 67.8,180.5 63.5,188.5 58.7,188.5 65,178.1 
		59.1,170.6 	"/>
	<polygon fill="#00438e" points="89.8,177.3 96.6,177.3 96.6,170.6 100.2,170.6 100.2,188.5 96.6,188.5 96.6,180.5 89.8,180.5
		89.8,188.5 86.2,188.5 86.2,170.6 89.8,170.6 	"/>
	<path fill="#00438e" d="M113.4,170.6l6.4,17.9h-4l-1.2-3.6h-6.4l-1.2,3.6h-4l6.4-17.9H113.4z M109,181.7h4.8l-2.4-7.1l0,0
		L109,181.7z"/>
	<path fill="#00438e" d="M126.1,188.5h-3.6v-17.9h8c3.2,0,5.6,2.4,5.6,5.6c0,1.6-0.8,5.6-5.6,5.6h-4.4L126.1,188.5L126.1,188.5z
		 M126.1,178.9h3.2c2.4,0,2.8-1.6,2.8-2.8c0-1.6-0.8-2.4-3.2-2.4h-3.2v5.2H126.1z"/>
	<path fill="#00438e" d="M146.5,170.2c2.4,0,8.8,0.8,8.8,9.5c0,8.7-6.4,9.5-8.8,9.5c-2.4,0-8.8-0.8-8.8-9.5
		C138.1,171.4,144.5,170.2,146.5,170.2 M146.5,185.7c2,0,4.8-1.2,4.8-6.3c0-5.1-2.8-6.3-4.8-6.3s-4.8,1.2-4.8,6.3
		C142.1,184.5,144.9,185.7,146.5,185.7"/>
	<path fill="#00438e" d="M173,170.6v12.7h1.6v5.6h-3.2v-2.4h-10.8v2.4h-3.2v-5.6h2c1.6-2.4,1.6-4.4,1.6-8.7V171L173,170.6L173,170.6
		z M169,183.3v-9.5h-5.2v0.8c0,4.4,0,6.3-1.2,8.7H169L169,183.3z"/>
	<polygon fill="#00438e" points="181.3,177.3 188.1,177.3 188.1,170.6 192.1,170.6 192.1,188.5 188.1,188.5 188.1,180.5
		181.3,180.5 181.3,188.5 177.8,188.5 177.8,170.6 181.3,170.6 	"/>
	<polygon fill="#00438e" points="198.9,182.9 198.9,182.9 206.1,170.6 210.1,170.6 210.1,188.5 206.5,188.5 206.5,175.8
		206.5,175.8 199.3,188.5 195.3,188.5 195.3,170.6 198.9,170.6 	"/>
	<polygon fill="#00438e" points="217.7,182.9 217.7,182.9 224.9,170.6 228.9,170.6 228.9,188.5 224.9,188.5 224.9,175.8
		224.9,175.8 217.7,188.5 213.7,188.5 213.7,170.6 217.7,170.6 	"/>
	<path fill="#00438e" d="M221.3,167c2,0,2.4-1.2,2.4-1.6h1.6c0,0.8-0.8,3.6-4,3.6c-3.2,0-4-2.8-4-3.6h1.6
		C218.9,166.2,219.3,167,221.3,167"/>
	<rect x="15.5" y="196" fill="#00438e" width="3.6" height="17.5"/>
	<polygon fill="#00438e" points="25.9,202.7 32.7,202.7 32.7,196 36.3,196 36.3,213.8 32.7,213.8 32.7,205.9 25.9,205.9 25.9,213.8
		21.9,213.8 21.9,196 25.9,196 	"/>
	<path fill="#00438e" d="M50.3,201.9c-0.4-1.2-0.8-3.2-4-3.2c-1.6,0-4.4,1.2-4.4,6.3c0,3.2,1.2,6.3,4.4,6.3c2,0,3.6-1.2,4-3.2h3.6
		c-0.8,4-3.2,6.3-7.6,6.3c-4.8,0-8-3.2-8-9.1c0-6.3,3.6-9.5,8-9.5c5.2,0,7.6,3.6,7.6,6.3L50.3,201.9L50.3,201.9z"/>
	<polygon fill="#00438e" points="63.5,213.8 59.9,213.8 59.9,199.2 54.3,199.2 54.3,196 69,196 69,199.2 63.5,199.2 	"/>
	<polygon fill="#00438e" points="73.8,208.7 73.8,208.7 80.6,196 85,196 85,213.8 81.4,213.8 81.4,201.1 81,201.1 73.8,213.8
		70.2,213.8 70.2,196 73.8,196 	"/>
	<polygon fill="#00438e" points="95.4,213.8 91.8,213.8 91.8,199.2 86.2,199.2 86.2,196 100.6,196 100.6,199.2 95.4,199.2 	"/>
	<path fill="#00438e" d="M105.8,196l4,9.5l3.2-9.5h4l-6,15.1c-1.2,2.8-2.4,3.2-4,3.2c-0.8,0-2,0-2.4,0v-3.2c0.4,0,1.2,0.4,1.6,0.4
		c0.8,0,1.2,0,2-1.2l-6.4-13.5L105.8,196L105.8,196z"/>
	<path fill="#00438e" d="M231.3,196l4,9.5l3.2-9.5h4l-6,15.1c-1.2,2.8-2.4,3.2-4,3.2c-0.8,0-2,0-2.4,0v-3.2c0.4,0,1.2,0.4,1.6,0.4
		c0.8,0,1.2,0,2-1.2l-6.4-13.5L231.3,196L231.3,196z"/>
	<polygon fill="#00438e" points="126.9,213.8 123.3,213.8 123.3,199.2 117.8,199.2 117.8,196 132.5,196 132.5,199.2 126.9,199.2
		"/>
	<path fill="#00438e" d="M153.3,196v3.2h-9.6v3.6h4.8c3.2,0,6,2,6,5.6s-2.8,5.6-6,5.6h-8v-17.5h12.8V196z M144.1,210.7h4
		c1.6,0,2.8-1.2,2.8-2.8s-1.2-2.4-2.8-2.4h-4V210.7z"/>
	<rect x="156.9" y="196" fill="#00438e" width="3.6" height="17.5"/>
	<path fill="#00438e" d="M163.4,201.5c0-3.2,2.4-6,6.8-6c4.8,0,6.8,2.8,6.8,4.8c0,2.4-1.2,3.6-3.2,4c2,0.4,3.6,2,3.6,4.8
		c0,2.8-2.4,5.2-7.2,5.2c-6,0-7.2-3.2-7.2-6h3.2c0,1.6,0.8,2.8,3.6,2.8c2.4,0,3.6-0.8,3.6-2.4c0-1.6-1.6-2.8-3.2-2.8h-1.6v-3.2h1.6
		c1.6,0,2.8-0.8,2.8-2.4c0-1.2-1.2-2-3.2-2c-2.4,0-3.2,0.8-3.6,2.8L163.4,201.5L163.4,201.5z"/>
	<polygon fill="#00438e" points="183.7,202.7 190.5,202.7 190.5,196 194.5,196 194.5,213.8 190.5,213.8 190.5,205.9 183.7,205.9
		183.7,213.8 180.1,213.8 180.1,196 183.7,196 	"/>
	<polygon fill="#00438e" points="210.1,196 210.1,199.2 200.9,199.2 200.9,202.7 209.3,202.7 209.3,205.9 200.9,205.9 200.9,210.7
		210.5,210.7 210.5,213.8 197.3,213.8 197.3,196 	"/>
	<path fill="#00438e" d="M223.7,201.9c-0.4-1.2-0.8-3.2-4-3.2c-1.6,0-4.4,1.2-4.4,6.3c0,3.2,1.2,6.3,4.4,6.3c2,0,3.6-1.2,4-3.2h3.6
		c-0.8,4-3.2,6.3-7.6,6.3c-4.8,0-8-3.2-8-9.1c0-6.3,3.6-9.5,8-9.5c5.2,0,7.6,3.6,7.6,6.3L223.7,201.9L223.7,201.9z"/>
</g>
</svg>
